<?xml version="1.0" encoding="UTF-8"?>
<svg width="542px" height="619px" viewBox="0 0 542 619" version="1.1" xmlns="http://www.w3.org/2000/svg"
     xmlns:xlink="http://www.w3.org/1999/xlink">
    <g id="logo" stroke="none" stroke-width="1" fill="none" fill-rule="evenodd">
        <g id="hexagon" fill-rule="nonzero">
            <g id="submarine">
                <path d="M113.53,247.095 L113.53,365.235 L141.84,342.745 L161.3,354.105 C161.3,354.105 159.32,358.475 159.32,366.275 C159.32,374.075 167.13,409.735 219.79,409.735 C272.45,409.735 356.33,409.735 356.33,409.735 C356.33,409.735 413.71,408.975 413.71,364.235 C413.71,364.235 413.54,353.835 410.21,347.025 C410.21,347.025 428.33,332.145 428.33,302.785 C428.33,273.425 399.67,241.275 361.92,241.275 L337.45,241.275 L337.45,210.375 C337.45,199.065 328.28,189.895 316.97,189.895 L298.77,189.895 L298.77,165.205 C298.77,162.355 297.69,159.605 295.74,157.525 L278.77,139.315 C274.79,135.045 268.13,134.715 263.75,138.585 L262.76,139.455 C257.96,143.685 257.89,151.145 262.6,155.475 L276.97,168.695 C278.12,169.755 278.78,171.255 278.78,172.815 L278.78,190.365 L253.41,190.365 C242.1,190.365 232.93,199.535 232.93,210.845 L232.93,240.935 L203.8,240.935 C199.38,240.935 195.04,242.045 191.16,244.145 L141.15,271.335 L113.53,247.095 Z"
                      id="Path" fill="#888888"></path>
                <path d="M113.53,260.415 L113.53,378.555 L141.84,356.065 L161.3,367.425 C161.3,367.425 159.32,371.795 159.32,379.595 C159.32,387.405 167.13,423.055 219.79,423.055 C272.45,423.055 356.33,423.055 356.33,423.055 C356.33,423.055 413.71,422.295 413.71,377.555 C413.71,377.555 413.54,367.155 410.21,360.345 C410.21,360.345 428.33,345.465 428.33,316.105 C428.33,286.745 399.67,254.595 361.92,254.595 L337.45,254.595 L337.45,223.695 C337.45,212.385 328.28,203.215 316.97,203.215 L298.77,203.215 L298.77,178.525 C298.77,175.675 297.69,172.925 295.74,170.845 L278.77,152.635 C274.79,148.365 268.13,148.035 263.75,151.905 L262.76,152.775 C257.96,157.005 257.89,164.465 262.6,168.795 L276.98,181.995 C278.13,183.055 278.79,184.555 278.79,186.115 L278.79,203.665 L253.42,203.665 C242.11,203.665 232.94,212.835 232.94,224.145 L232.94,254.235 L203.8,254.235 C199.38,254.235 195.04,255.345 191.16,257.445 L141.15,284.635 L113.53,260.415 Z"
                      id="Path" fill="#888888" opacity="0.3"></path>
                <path d="M394.66,362.845 C394.66,370.815 389.03,378.015 381.4,383.235 C373.78,388.455 364.17,391.685 356.21,391.685 L217.28,391.685 C201.35,391.685 178.13,378.775 178.13,362.845 L394.66,362.845 Z"
                      id="Path" fill="#A1A1A1"></path>
                <path d="M390.16,362.845 C387.87,365.895 384.84,368.645 381.4,370.995 C373.78,376.215 364.17,379.445 356.21,379.445 L217.28,379.445 C205.73,379.445 190.34,372.655 182.75,362.845 L390.16,362.845 L390.16,362.845 Z"
                      id="Path" fill="#ededed"></path>
                <path d="M408.75,301.945 L408.75,302.205 C408.75,325.175 390.13,343.795 367.16,343.795 L196.15,343.795 C191.77,343.795 187.45,342.775 183.53,340.825 L136.83,317.465 L136.83,304.225 C142.21,308.255 154.27,314.755 175.98,314.755 C207.43,314.755 378.35,314.755 378.35,314.755 C378.35,314.755 397.41,316.655 408.75,301.945 Z"
                      id="Path" fill="#A1A1A1"></path>
                <path d="M408.75,301.945 C397.41,316.655 378.35,314.755 378.35,314.755 C378.35,314.755 207.43,314.755 175.98,314.755 C154.27,314.755 142.21,308.255 136.83,304.225 L136.83,294.635 L197.18,263.715 C201.16,261.675 205.57,260.615 210.04,260.615 L367.16,260.615 C378.64,260.615 389.04,265.275 396.57,272.795 C402.81,279.035 407.07,287.225 408.34,296.385 C408.6,298.205 408.74,300.055 408.75,301.945 Z"
                      id="Path" fill="#ededed"></path>
                <path d="M318,212.325 L318,240.925 L252.4,240.925 L252.4,212.325 C252.4,210.485 253.89,209.005 255.72,209.005 L314.68,209.005 C316.51,209.005 318,210.485 318,212.325 Z"
                      id="Path" fill="#ededed"></path>
                <circle id="Oval" fill="#888888" cx="240.87" cy="302.205" r="16.08"></circle>
                <circle id="Oval" fill="#888888" cx="281.95" cy="302.205" r="16.08"></circle>
                <circle id="Oval" fill="#888888" cx="323.03" cy="302.205" r="16.08"></circle>
                <circle id="Oval" fill="#888888" cx="364.11" cy="302.205" r="16.08"></circle>
                <path d="M252.4,217.385 L252.23,212.295 C252.19,211.405 252.52,210.485 253.13,209.795 C253.74,209.105 254.64,208.655 255.59,208.585 C259.01,208.415 262.38,208.315 265.78,208.235 C272.56,208.055 279.34,208.005 286.13,207.985 C292.91,208.015 299.69,208.055 306.48,208.245 L311.57,208.395 L314.11,208.485 L314.75,208.515 C314.99,208.525 315.23,208.565 315.46,208.625 C315.93,208.745 316.37,208.955 316.75,209.235 C317.51,209.795 318.03,210.645 318.18,211.555 C318.26,212.015 318.22,212.465 318.21,212.875 L318.18,214.145 L318,219.235 L317.82,214.145 L317.79,212.875 C317.78,212.445 317.78,212.035 317.67,211.665 C317.47,210.905 316.97,210.255 316.32,209.875 C316,209.685 315.64,209.555 315.28,209.495 C314.93,209.435 314.55,209.475 314.11,209.485 L311.57,209.575 L306.48,209.725 C299.7,209.915 292.92,209.955 286.13,209.985 C279.35,209.965 272.57,209.925 265.78,209.735 C262.39,209.655 258.98,209.545 255.62,209.395 C254.11,209.315 252.62,210.635 252.56,212.285 L252.4,217.385 Z"
                      id="Path" fill="#FFFFFF"></path>
                <path d="M408.75,301.945 C408.63,296.595 407.5,291.295 405.42,286.405 C403.34,281.515 400.29,277.065 396.54,273.345 C392.81,269.605 388.35,266.605 383.49,264.575 C378.64,262.535 373.39,261.465 368.15,261.435 L303.99,261.605 C282.6,261.505 261.21,261.555 239.81,261.305 L223.76,261.155 L215.74,261.055 L211.73,260.995 C210.39,260.965 209.08,260.965 207.75,261.065 C206.43,261.155 205.1,261.295 203.81,261.555 C202.51,261.775 201.3,262.315 200.08,262.855 C197.64,263.935 195.23,265.095 192.82,266.255 L178.42,273.335 C183.13,270.805 187.87,268.315 192.67,265.945 C195.07,264.755 197.46,263.575 199.9,262.455 C201.11,261.905 202.37,261.335 203.7,261.055 C205.02,260.745 206.36,260.565 207.7,260.435 C209.03,260.295 210.4,260.245 211.73,260.245 L215.74,260.185 L223.76,260.085 L239.8,259.935 C261.19,259.675 282.59,259.725 303.98,259.635 C314.68,259.595 325.37,259.675 336.07,259.695 C346.77,259.745 357.45,259.705 368.18,259.845 C373.63,259.985 379.04,261.185 384.01,263.385 C388.98,265.575 393.51,268.745 397.26,272.645 C404.78,280.435 409.04,291.225 408.75,301.945 Z"
                      id="Path" fill="#FFFFFF"></path>
                <path d="M178.13,362.845 C187.15,362.615 196.17,362.525 205.2,362.355 L232.27,362.075 C250.31,361.915 268.36,361.925 286.4,361.845 C304.44,361.925 322.49,361.915 340.53,362.075 L367.6,362.355 C376.62,362.525 385.64,362.615 394.67,362.845 C385.65,363.075 376.63,363.165 367.6,363.335 L340.53,363.615 C322.49,363.775 304.44,363.765 286.4,363.845 C268.36,363.765 250.31,363.775 232.27,363.615 L205.2,363.335 C196.18,363.165 187.16,363.065 178.13,362.845 Z"
                      id="Path" fill="#FFFFFF"></path>
            </g>
        </g>
    </g>
</svg>
